<svg width="25" height="25" viewBox="0 0 25 25" fill="none" xmlns="http://www.w3.org/2000/svg">
<path d="M14.272 3.88623V7.88623C14.272 8.15145 14.3773 8.4058 14.5649 8.59334C14.7524 8.78087 15.0068 8.88623 15.272 8.88623H19.272" stroke="#A0AEC0" stroke-width="1.5" stroke-linecap="round" stroke-linejoin="round"/>
<path d="M17.272 21.8862H7.27197C6.74154 21.8862 6.23283 21.6755 5.85776 21.3004C5.48269 20.9254 5.27197 20.4167 5.27197 19.8862V5.88623C5.27197 5.3558 5.48269 4.84709 5.85776 4.47202C6.23283 4.09694 6.74154 3.88623 7.27197 3.88623H14.272L19.272 8.88623V19.8862C19.272 20.4167 19.0613 20.9254 18.6862 21.3004C18.3111 21.6755 17.8024 21.8862 17.272 21.8862Z" stroke="#A0AEC0" stroke-width="1.5" stroke-linecap="round" stroke-linejoin="round"/>
<path d="M12.272 11.8862V17.8862" stroke="#A0AEC0" stroke-width="1.5" stroke-linecap="round" stroke-linejoin="round"/>
<path d="M9.27197 14.8862L12.272 17.8862L15.272 14.8862" stroke="#A0AEC0" stroke-width="1.5" stroke-linecap="round" stroke-linejoin="round"/>
</svg>
