<svg width="22" height="24" viewBox="0 0 22 24" fill="none" xmlns="http://www.w3.org/2000/svg">
<path d="M14.4765 23.022H14.337C9.57179 23.022 7.27504 21.1439 6.87794 16.9367C6.83501 16.4967 7.15698 16.0996 7.60775 16.0567C8.03705 16.0137 8.44488 16.3465 8.48781 16.7865C8.79905 20.1565 10.3875 21.4122 14.3477 21.4122H14.4873C18.8554 21.4122 20.4008 19.8667 20.4008 15.4986V8.501C20.4008 4.13288 18.8554 2.58741 14.4873 2.58741H14.3477C10.366 2.58741 8.77759 3.86457 8.48781 7.29896C8.43415 7.73899 8.05851 8.0717 7.60775 8.02877C7.15698 7.99657 6.83501 7.59947 6.86721 7.15944C7.23211 2.88792 9.53959 0.977539 14.337 0.977539H14.4765C19.7462 0.977539 22 3.23136 22 8.501V15.4986C22 20.7682 19.7462 23.022 14.4765 23.022Z" fill="#A8B0B9"/>
<path d="M14.2174 12.8047H2.00391C1.56388 12.8047 1.19897 12.4398 1.19897 11.9998C1.19897 11.5597 1.56388 11.1948 2.00391 11.1948H14.2174C14.6574 11.1948 15.0223 11.5597 15.0223 11.9998C15.0223 12.4398 14.6574 12.8047 14.2174 12.8047Z" fill="#A8B0B9"/>
<path d="M4.39763 16.4C4.19371 16.4 3.98979 16.3249 3.82881 16.1639L0.233431 12.5685C-0.0778104 12.2573 -0.0778104 11.7421 0.233431 11.4309L3.82881 7.83548C4.14005 7.52424 4.65521 7.52424 4.96645 7.83548C5.27769 8.14672 5.27769 8.66188 4.96645 8.97312L1.93989 11.9997L4.96645 15.0262C5.27769 15.3375 5.27769 15.8526 4.96645 16.1639C4.81619 16.3249 4.60155 16.4 4.39763 16.4Z" fill="#A8B0B9"/>
</svg>
