<svg width="22" height="22" viewBox="0 0 22 22" fill="none" xmlns="http://www.w3.org/2000/svg">
<path d="M18 18H4C2.93913 18 1.92172 17.5786 1.17157 16.8284C0.421427 16.0783 0 15.0609 0 14V4C0 2.93913 0.421427 1.92172 1.17157 1.17157C1.92172 0.421427 2.93913 0 4 0H18C19.0609 0 20.0783 0.421427 20.8284 1.17157C21.5786 1.92172 22 2.93913 22 4V14C22 15.0609 21.5786 16.0783 20.8284 16.8284C20.0783 17.5786 19.0609 18 18 18ZM4 2C3.46957 2 2.96086 2.21071 2.58579 2.58579C2.21071 2.96086 2 3.46957 2 4V14C2 14.5304 2.21071 15.0391 2.58579 15.4142C2.96086 15.7893 3.46957 16 4 16H18C18.5304 16 19.0391 15.7893 19.4142 15.4142C19.7893 15.0391 20 14.5304 20 14V4C20 3.46957 19.7893 2.96086 19.4142 2.58579C19.0391 2.21071 18.5304 2 18 2H4Z" fill="#A8B0B9"/>
<path d="M14 22H8V16H14V22ZM10 20H12V18H10V20Z" fill="#A8B0B9"/>
<path d="M16 20H6C5.44772 20 5 20.4477 5 21C5 21.5523 5.44772 22 6 22H16C16.5523 22 17 21.5523 17 21C17 20.4477 16.5523 20 16 20Z" fill="#A8B0B9"/>
<path d="M21 12H1V14H21V12Z" fill="#A8B0B9"/>
</svg>
