<svg width="30" height="24" viewBox="0 0 30 24" fill="none" xmlns="http://www.w3.org/2000/svg">
<path d="M30 6C29.9987 5.77444 29.9212 5.55594 29.78 5.38L26.68 1.5C26.3055 1.03225 25.8307 0.654618 25.2907 0.39499C24.7507 0.135361 24.1592 0.000374441 23.56 0H6.44C5.8408 0.000374441 5.24935 0.135361 4.70932 0.39499C4.1693 0.654618 3.6945 1.03225 3.32 1.5L0.22 5.38C0.0788394 5.55594 0.0013084 5.77444 0 6C0.00421348 6.69806 0.191035 7.38286 0.541898 7.98634C0.892761 8.58982 1.39545 9.09098 2 9.44V23C2 23.2652 2.10536 23.5196 2.29289 23.7071C2.48043 23.8946 2.73478 24 3 24H27C27.2652 24 27.5196 23.8946 27.7071 23.7071C27.8946 23.5196 28 23.2652 28 23V9.44C28.6046 9.09098 29.1072 8.58982 29.4581 7.98634C29.809 7.38286 29.9958 6.69806 30 6ZM4.88 2.75C5.06725 2.51613 5.30465 2.32731 5.57466 2.1975C5.84467 2.06768 6.1404 2.00019 6.44 2H23.56C23.8596 2.00019 24.1553 2.06768 24.4253 2.1975C24.6954 2.32731 24.9328 2.51613 25.12 2.75L28 6.32C27.9233 6.79325 27.6792 7.22322 27.3121 7.53158C26.945 7.83994 26.4794 8.00617 26 8C25.6114 7.99941 25.2313 7.8856 24.9063 7.67249C24.5813 7.45938 24.3255 7.15619 24.17 6.8C24.0932 6.61961 23.965 6.46579 23.8014 6.35768C23.6378 6.24956 23.4461 6.19192 23.25 6.19192C23.0539 6.19192 22.8622 6.24956 22.6986 6.35768C22.535 6.46579 22.4068 6.61961 22.33 6.8C22.1735 7.1549 21.9172 7.45664 21.5923 7.66848C21.2674 7.88031 20.8879 7.99309 20.5 7.99309C20.1121 7.99309 19.7326 7.88031 19.4077 7.66848C19.0828 7.45664 18.8265 7.1549 18.67 6.8C18.5932 6.61961 18.465 6.46579 18.3014 6.35768C18.1378 6.24956 17.9461 6.19192 17.75 6.19192C17.5539 6.19192 17.3622 6.24956 17.1986 6.35768C17.035 6.46579 16.9068 6.61961 16.83 6.8C16.6735 7.1549 16.4172 7.45664 16.0923 7.66848C15.7674 7.88031 15.3879 7.99309 15 7.99309C14.6121 7.99309 14.2326 7.88031 13.9077 7.66848C13.5828 7.45664 13.3265 7.1549 13.17 6.8C13.0932 6.61961 12.965 6.46579 12.8014 6.35768C12.6378 6.24956 12.4461 6.19192 12.25 6.19192C12.0539 6.19192 11.8622 6.24956 11.6986 6.35768C11.535 6.46579 11.4068 6.61961 11.33 6.8C11.1735 7.1549 10.9172 7.45664 10.5923 7.66848C10.2674 7.88031 9.88787 7.99309 9.5 7.99309C9.11213 7.99309 8.73263 7.88031 8.40771 7.66848C8.0828 7.45664 7.82649 7.1549 7.67 6.8C7.59315 6.61961 7.46497 6.46579 7.3014 6.35768C7.13782 6.24956 6.94608 6.19192 6.75 6.19192C6.55392 6.19192 6.36218 6.24956 6.1986 6.35768C6.03503 6.46579 5.90685 6.61961 5.83 6.8C5.67454 7.15619 5.41868 7.45938 5.09368 7.67249C4.76869 7.8856 4.38864 7.99941 4 8C3.52062 8.00617 3.05497 7.83994 2.68788 7.53158C2.32078 7.22322 2.07667 6.79325 2 6.32L4.88 2.75ZM8 22V14H12V22H8ZM26 22H14V13C14 12.7348 13.8946 12.4804 13.7071 12.2929C13.5196 12.1054 13.2652 12 13 12H7C6.73478 12 6.48043 12.1054 6.29289 12.2929C6.10536 12.4804 6 12.7348 6 13V22H4V10C5.02227 10.0014 6.0063 9.61139 6.75 8.91C7.49288 9.61331 8.477 10.0053 9.5 10.0053C10.523 10.0053 11.5071 9.61331 12.25 8.91C12.9929 9.61331 13.977 10.0053 15 10.0053C16.023 10.0053 17.0071 9.61331 17.75 8.91C18.4929 9.61331 19.477 10.0053 20.5 10.0053C21.523 10.0053 22.5071 9.61331 23.25 8.91C23.9937 9.61139 24.9777 10.0014 26 10V22Z" fill="#A8B0B9"/>
</svg>
